<svg xmlns="http://www.w3.org/2000/svg" xmlns:xlink="http://www.w3.org/1999/xlink" width="707" height="775" viewBox="0 0 707 775">
  <defs>
    <clipPath id="clip-path">
      <rect width="639" height="610" fill="none"/>
    </clipPath>
  </defs>
  <g id="Group_39" data-name="Group 39" transform="translate(-185 -1771)">
    <g id="Group_38" data-name="Group 38" transform="translate(21 91)">
      <g id="Rectangle_13" data-name="Rectangle 13" transform="translate(164 1758)" fill="#846446" stroke="#707070" stroke-width="1">
        <rect width="707" height="697" stroke="none"/>
        <rect x="0.5" y="0.5" width="706" height="696" fill="none"/>
      </g>
      <g id="Repeat_Grid_2" data-name="Repeat Grid 2" transform="translate(201 1815)" clip-path="url(#clip-path)">
        <g transform="translate(-258 -1816)">
          <g id="Rectangle_14" data-name="Rectangle 14" transform="translate(258 1816)" fill="#745435" stroke="#707070" stroke-width="1">
            <rect width="144" height="133" stroke="none"/>
            <rect x="0.5" y="0.5" width="143" height="132" fill="none"/>
          </g>
        </g>
        <g transform="translate(-94 -1816)">
          <g id="Rectangle_14-2" data-name="Rectangle 14" transform="translate(258 1816)" fill="#745435" stroke="#707070" stroke-width="1">
            <rect width="144" height="133" stroke="none"/>
            <rect x="0.5" y="0.5" width="143" height="132" fill="none"/>
          </g>
        </g>
        <g transform="translate(70 -1816)">
          <g id="Rectangle_14-3" data-name="Rectangle 14" transform="translate(258 1816)" fill="#745435" stroke="#707070" stroke-width="1">
            <rect width="144" height="133" stroke="none"/>
            <rect x="0.5" y="0.5" width="143" height="132" fill="none"/>
          </g>
        </g>
        <g transform="translate(234 -1816)">
          <g id="Rectangle_14-4" data-name="Rectangle 14" transform="translate(258 1816)" fill="#745435" stroke="#707070" stroke-width="1">
            <rect width="144" height="133" stroke="none"/>
            <rect x="0.5" y="0.5" width="143" height="132" fill="none"/>
          </g>
        </g>
        <g transform="translate(-258 -1663)">
          <g id="Rectangle_14-5" data-name="Rectangle 14" transform="translate(258 1816)" fill="#745435" stroke="#707070" stroke-width="1">
            <rect width="144" height="133" stroke="none"/>
            <rect x="0.5" y="0.5" width="143" height="132" fill="none"/>
          </g>
        </g>
        <g transform="translate(-94 -1663)">
          <g id="Rectangle_14-6" data-name="Rectangle 14" transform="translate(258 1816)" fill="#745435" stroke="#707070" stroke-width="1">
            <rect width="144" height="133" stroke="none"/>
            <rect x="0.5" y="0.5" width="143" height="132" fill="none"/>
          </g>
        </g>
        <g transform="translate(70 -1663)">
          <g id="Rectangle_14-7" data-name="Rectangle 14" transform="translate(258 1816)" fill="#745435" stroke="#707070" stroke-width="1">
            <rect width="144" height="133" stroke="none"/>
            <rect x="0.5" y="0.5" width="143" height="132" fill="none"/>
          </g>
        </g>
        <g transform="translate(234 -1663)">
          <g id="Rectangle_14-8" data-name="Rectangle 14" transform="translate(258 1816)" fill="#745435" stroke="#707070" stroke-width="1">
            <rect width="144" height="133" stroke="none"/>
            <rect x="0.5" y="0.5" width="143" height="132" fill="none"/>
          </g>
        </g>
        <g transform="translate(-258 -1510)">
          <g id="Rectangle_14-9" data-name="Rectangle 14" transform="translate(258 1816)" fill="#745435" stroke="#707070" stroke-width="1">
            <rect width="144" height="133" stroke="none"/>
            <rect x="0.5" y="0.5" width="143" height="132" fill="none"/>
          </g>
        </g>
        <g transform="translate(-94 -1510)">
          <g id="Rectangle_14-10" data-name="Rectangle 14" transform="translate(258 1816)" fill="#745435" stroke="#707070" stroke-width="1">
            <rect width="144" height="133" stroke="none"/>
            <rect x="0.5" y="0.5" width="143" height="132" fill="none"/>
          </g>
        </g>
        <g transform="translate(70 -1510)">
          <g id="Rectangle_14-11" data-name="Rectangle 14" transform="translate(258 1816)" fill="#745435" stroke="#707070" stroke-width="1">
            <rect width="144" height="133" stroke="none"/>
            <rect x="0.5" y="0.5" width="143" height="132" fill="none"/>
          </g>
        </g>
        <g transform="translate(234 -1510)">
          <g id="Rectangle_14-12" data-name="Rectangle 14" transform="translate(258 1816)" fill="#745435" stroke="#707070" stroke-width="1">
            <rect width="144" height="133" stroke="none"/>
            <rect x="0.5" y="0.5" width="143" height="132" fill="none"/>
          </g>
        </g>
        <g transform="translate(-258 -1357)">
          <g id="Rectangle_14-13" data-name="Rectangle 14" transform="translate(258 1816)" fill="#745435" stroke="#707070" stroke-width="1">
            <rect width="144" height="133" stroke="none"/>
            <rect x="0.5" y="0.5" width="143" height="132" fill="none"/>
          </g>
        </g>
        <g transform="translate(-94 -1357)">
          <g id="Rectangle_14-14" data-name="Rectangle 14" transform="translate(258 1816)" fill="#745435" stroke="#707070" stroke-width="1">
            <rect width="144" height="133" stroke="none"/>
            <rect x="0.5" y="0.5" width="143" height="132" fill="none"/>
          </g>
        </g>
        <g transform="translate(70 -1357)">
          <g id="Rectangle_14-15" data-name="Rectangle 14" transform="translate(258 1816)" fill="#745435" stroke="#707070" stroke-width="1">
            <rect width="144" height="133" stroke="none"/>
            <rect x="0.5" y="0.5" width="143" height="132" fill="none"/>
          </g>
        </g>
        <g transform="translate(234 -1357)">
          <g id="Rectangle_14-16" data-name="Rectangle 14" transform="translate(258 1816)" fill="#745435" stroke="#707070" stroke-width="1">
            <rect width="144" height="133" stroke="none"/>
            <rect x="0.5" y="0.5" width="143" height="132" fill="none"/>
          </g>
        </g>
      </g>
      <g id="Rectangle_16" data-name="Rectangle 16" transform="translate(216 1830)" fill="#6a99cf" stroke="#707070" stroke-width="1">
        <rect width="115" height="102" stroke="none"/>
        <rect x="0.5" y="0.5" width="114" height="101" fill="none"/>
      </g>
      <g id="Rectangle_17" data-name="Rectangle 17" transform="translate(542 2134)" fill="#6a99cf" stroke="#707070" stroke-width="1">
        <rect width="115" height="102" stroke="none"/>
        <rect x="0.5" y="0.5" width="114" height="101" fill="none"/>
      </g>
      <g id="Rectangle_18" data-name="Rectangle 18" transform="translate(379 2287)" fill="#6a99cf" stroke="#707070" stroke-width="1">
        <rect width="115" height="102" stroke="none"/>
        <rect x="0.5" y="0.5" width="114" height="101" fill="none"/>
      </g>
    </g>
    <text id="My_garden" data-name="My garden" transform="translate(185 1771)" font-size="38" font-family="SegoeUI-Semibold, Segoe UI" font-weight="600"><tspan x="260.198" y="41">My garden</tspan></text>
  </g>
</svg>
