<svg xmlns="http://www.w3.org/2000/svg" width="124" height="124" viewBox="0 0 124 124">
  <g id="Icon_ionic-md-paper" data-name="Icon ionic-md-paper" transform="translate(-2.25 -4.5)">
    <path id="Path_36" data-name="Path 36" d="M121.821,4.5H46.536c-2.436,0-4.429,2.486-4.429,5.328V20H13.875C7.481,20,2.25,26.1,2.25,33.563v67.005c0,15.371,10.795,27.932,23.8,27.932h77.417c12.483,0,22.779-11.916,22.779-26.479V9.667C126.25,6.825,124.257,4.5,121.821,4.5ZM42.107,30.333v62H30.482v-55.8a18.137,18.137,0,0,0-.913-6.2ZM37.4,112.806a15.227,15.227,0,0,1-11.21,5.36A14.048,14.048,0,0,1,15.536,113a19.069,19.069,0,0,1-4.429-12.432V36.533c0-3.423,2.325-6.2,5.259-6.2s5.259,2.777,5.259,6.2V97.5c0,2.842,1.993,5.167,4.429,5.167H41.969A18.057,18.057,0,0,1,37.4,112.806Zm79.991-10.785a17.486,17.486,0,0,1-4.124,11.4,12.912,12.912,0,0,1-9.8,4.747H45.235a29.71,29.71,0,0,0,5.729-17.6V15.156h66.429Z" fill="#fff"/>
    <path id="Path_37" data-name="Path 37" d="M17.438,9.563h11.25V13.5H17.438Z" transform="translate(69.375 21.293)" fill="#fff"/>
    <path id="Path_38" data-name="Path 38" d="M17.438,15.75h11.25V18H17.438Z" transform="translate(69.375 44.091)" fill="#fff"/>
    <path id="Path_39" data-name="Path 39" d="M17.438,20.25h11.25V22.5H17.438Z" transform="translate(69.375 61.727)" fill="#fff"/>
    <path id="Path_40" data-name="Path 40" d="M28.688,24.75H17.438s0,2.25-.562,2.25H27.33C28.688,27,28.688,25.523,28.688,24.75Z" transform="translate(68.714 65.081)" fill="#fff"/>
  </g>
</svg>
